<svg xmlns="http://www.w3.org/2000/svg" viewBox="0 0 560 130" width="560" height="130">

  <!-- Logo mark — small -->
  <rect x="0" y="0" width="120" height="120" rx="24" fill="#f5f0ff"/>
  <rect x="0" y="0" width="120" height="120" rx="24" fill="none" stroke="#7c3aed" stroke-width="3"/>
  <circle cx="28" cy="28" r="50" fill="#7c3aed" opacity="0.07"/>
  <circle cx="96" cy="96" r="55" fill="#06d6a0" opacity="0.07"/>
  <!-- ? -->
  <path d="M42,44 C42,28 49,22 60,22 C71,22 79,28 79,38 C79,50 71,55 65,62 C61,67 59,72 59,80"
        fill="none" stroke="#7c3aed" stroke-width="10" stroke-linecap="round"/>
  <path d="M46,44 C46,31 52,26 60,26 C68,26 75,31 75,38 C75,49 68,54 62,60 C57,65 63,72 63,80"
        fill="none" stroke="#f5f0ff" stroke-width="4.5" stroke-linecap="round"/>
  <!-- dot -->
  <circle cx="60" cy="96" r="9" fill="#7c3aed"/>
  <path d="M55,98.5 C55.8,98.5 56.8,97.5 58.2,95 C58.8,94 59.3,93.5 59.8,93.5 C60.3,93.5 60.8,94 61.5,95 C62.8,97.5 63.8,98.5 65,98.5"
        fill="none" stroke="white" stroke-width="1.5" stroke-linecap="round"/>
  <!-- dots -->
  <circle cx="16" cy="44" r="4" fill="#f9c74f" opacity="0.9"/>
  <circle cx="10" cy="68" r="3" fill="#06d6a0" opacity="0.85"/>
  <circle cx="14" cy="92" r="4" fill="#f72585" opacity="0.85"/>
  <circle cx="106" cy="42" r="3" fill="#4361ee" opacity="0.85"/>
  <circle cx="112" cy="66" r="4" fill="#f72585" opacity="0.9"/>
  <circle cx="108" cy="90" r="3" fill="#74c417" opacity="0.85"/>

  <!-- Wordmark — right of logo -->
  <text x="144" y="62"
        fill="#1a1535"
        font-family="Georgia, 'Times New Roman', serif"
        font-size="40" font-weight="400" letter-spacing="-0.5">Probably</text>
  <text x="144" y="108"
        fill="#7c3aed"
        font-family="Georgia, 'Times New Roman', serif"
        font-size="44" font-weight="700" letter-spacing="-1">True<tspan fill="#f9c74f" font-size="50">.</tspan></text>

</svg>
