<svg xmlns="http://www.w3.org/2000/svg" viewBox="0 0 900 500" width="900" height="500">

  <!-- Background -->
  <rect width="900" height="500" fill="#faf8ff"/>
  <circle cx="160" cy="140" r="200" fill="#7c3aed" opacity="0.07"/>
  <circle cx="740" cy="380" r="220" fill="#06d6a0" opacity="0.07"/>
  <circle cx="760" cy="120" r="160" fill="#f9c74f" opacity="0.07"/>
  <circle cx="200" cy="400" r="150" fill="#f72585" opacity="0.05"/>

  <!-- Logo card — exact same as logo-mark.svg scaled to fit -->
  <g transform="translate(60,50) scale(0.975)">
    <rect width="400" height="400" rx="80" fill="#f5f0ff"/>
    <rect x="5" y="5" width="390" height="390" rx="76" fill="none" stroke="#7c3aed" stroke-width="10"/>
    <circle cx="100" cy="100" r="130" fill="#7c3aed" opacity="0.07"/>
    <circle cx="320" cy="330" r="150" fill="#06d6a0" opacity="0.07"/>
    <circle cx="330" cy="90"  r="110" fill="#f9c74f" opacity="0.07"/>
    <path d="M148,158 C148,110 166,92 200,92 C234,92 254,110 254,136 C254,166 234,180 218,197 C206,210 202,222 202,242"
          fill="none" stroke="#7c3aed" stroke-width="30" stroke-linecap="round"/>
    <path d="M162,158 C162,118 178,106 200,106 C222,106 240,118 240,136 C240,162 222,175 207,191 C197,202 212,222 212,242"
          fill="none" stroke="#f5f0ff" stroke-width="14" stroke-linecap="round"/>
    <circle cx="200" cy="288" r="28" fill="#7c3aed"/>
    <path d="M184,295 C186,295 188,293 191,287 C193,283 196,280 198,280 C199,280 200,280 202,281 C205,284 207,288 210,295 C213,295 215,294 216,292"
          fill="none" stroke="white" stroke-width="2.8" stroke-linecap="round"/>
    <line x1="184" y1="295" x2="216" y2="295" stroke="white" stroke-width="1.4" opacity="0.45"/>
    <circle cx="72"  cy="158" r="10" fill="#f9c74f" opacity="0.95"/>
    <circle cx="56"  cy="218" r="8"  fill="#06d6a0" opacity="0.9"/>
    <circle cx="68"  cy="278" r="11" fill="#f72585" opacity="0.9"/>
    <circle cx="330" cy="156" r="8"  fill="#4361ee" opacity="0.9"/>
    <circle cx="346" cy="216" r="11" fill="#f72585" opacity="0.95"/>
    <circle cx="332" cy="276" r="8"  fill="#74c417" opacity="0.9"/>
    <circle cx="148" cy="56"  r="7"  fill="#4361ee" opacity="0.7"/>
    <circle cx="256" cy="54"  r="8"  fill="#74c417" opacity="0.7"/>
    <g transform="translate(82,336)" opacity="0.85">
      <rect x="0"   y="24" width="14" height="14" rx="3" fill="#4361ee"/>
      <rect x="18"  y="15" width="14" height="23" rx="3" fill="#4361ee"/>
      <rect x="36"  y="5"  width="14" height="33" rx="3" fill="#7c3aed"/>
      <rect x="54"  y="1"  width="14" height="37" rx="3" fill="#f9c74f"/>
      <rect x="72"  y="5"  width="14" height="33" rx="3" fill="#06d6a0"/>
      <rect x="90"  y="15" width="14" height="23" rx="3" fill="#f72585"/>
      <rect x="108" y="24" width="14" height="14" rx="3" fill="#4361ee"/>
      <rect x="126" y="28" width="14" height="10" rx="3" fill="#f72585" opacity="0.6"/>
      <rect x="144" y="31" width="14" height="7"  rx="3" fill="#06d6a0" opacity="0.5"/>
      <rect x="162" y="34" width="14" height="4"  rx="3" fill="#74c417" opacity="0.45"/>
    </g>
  </g>

  <!-- Right side wordmark -->
  <text x="540" y="185" fill="#1a1535"
        font-family="Georgia, serif" font-size="72" font-weight="400" letter-spacing="-1">Probably</text>
  <text x="540" y="278" fill="#7c3aed"
        font-family="Georgia, serif" font-size="82" font-weight="700" letter-spacing="-2">True<tspan fill="#f9c74f">.</tspan></text>

  <!-- Divider -->
  <line x1="540" y1="310" x2="862" y2="310" stroke="#7c3aed" stroke-width="1" opacity="0.15"/>
  <circle cx="540" cy="310" r="4" fill="#f9c74f" opacity="0.8"/>
  <circle cx="700" cy="310" r="4" fill="#7c3aed" opacity="0.8"/>
  <circle cx="860" cy="310" r="4" fill="#06d6a0" opacity="0.8"/>

  <!-- Tagline -->
  <text x="540" y="344" fill="#7b72a8"
        font-family="monospace" font-size="16" letter-spacing="4">STATISTICS · VISUALLY</text>

  <!-- Stat symbols -->
  <text x="548" y="410" fill="#7c3aed" font-family="Georgia,serif" font-size="22" opacity="0.25" font-style="italic">P(A|B)</text>
  <text x="650" y="408" fill="#f9c74f" font-family="Georgia,serif" font-size="26" opacity="0.3">σ²</text>
  <text x="730" y="410" fill="#06d6a0" font-family="Georgia,serif" font-size="22" opacity="0.25" font-style="italic">E[X]</text>
  <text x="810" y="408" fill="#f72585" font-family="Georgia,serif" font-size="18" opacity="0.25" font-style="italic">p&lt;0.05</text>

</svg>
